<?xml version="1.0" encoding="UTF-8" ?>
<!DOCTYPE svg PUBLIC "-//W3C//DTD SVG 1.1//EN" "http://www.w3.org/Graphics/SVG/1.1/DTD/svg11.dtd">
<svg width="55pt" height="56pt" viewBox="0 0 55 56" version="1.1" xmlns="http://www.w3.org/2000/svg">
<path fill="#ffffff" d=" M 0.00 0.00 L 55.00 0.00 L 55.00 56.00 L 0.00 56.00 L 0.00 0.00 Z" />
<path fill="#000000" d=" M 21.30 2.77 C 25.18 1.49 29.80 1.53 33.69 2.82 C 34.11 2.90 34.95 3.05 35.38 3.12 C 39.02 4.30 42.05 6.67 45.19 8.77 C 47.93 11.18 49.71 14.49 51.41 17.67 C 51.75 18.64 52.10 19.60 52.44 20.57 C 53.12 23.04 53.00 25.65 53.80 28.10 C 53.02 30.61 53.22 33.32 52.23 35.77 C 52.15 36.18 51.99 37.00 51.91 37.42 C 51.60 37.96 50.98 39.06 50.67 39.60 C 50.44 40.12 50.00 41.15 49.78 41.67 C 46.95 47.04 41.64 50.37 36.35 52.95 C 35.96 52.99 35.20 53.09 34.82 53.13 C 32.77 54.45 30.27 53.89 27.98 54.04 C 25.49 53.93 22.88 54.34 20.50 53.40 C 19.56 53.10 18.64 52.76 17.72 52.39 C 16.59 51.83 15.46 51.28 14.32 50.75 C 9.63 48.23 6.29 43.83 3.57 39.36 C 3.24 38.41 2.92 37.46 2.63 36.50 C 2.23 35.24 1.97 33.94 1.72 32.65 C -0.26 28.60 1.86 24.31 2.33 20.19 C 3.40 18.28 4.34 16.30 5.26 14.31 C 7.63 9.76 11.93 6.68 16.32 4.26 C 17.42 3.96 18.52 3.61 19.60 3.24 C 20.02 3.12 20.88 2.88 21.30 2.77 Z" />
<path fill="#ffffff" d=" M 10.84 11.89 C 15.08 7.00 21.48 3.94 27.99 4.14 C 39.78 3.83 50.83 14.14 50.85 26.05 C 51.89 38.85 40.19 50.61 27.41 49.91 C 29.86 47.60 32.78 45.99 35.83 44.62 C 40.91 42.20 42.66 36.48 44.75 31.71 C 46.98 30.02 49.16 28.25 50.76 25.91 C 50.17 25.49 49.57 25.07 48.97 24.65 C 48.15 25.11 46.51 26.02 45.69 26.47 C 45.74 22.42 46.51 17.86 44.04 14.31 C 42.81 12.33 40.44 11.68 38.48 10.69 C 38.62 12.76 38.75 14.84 38.79 16.93 C 37.51 18.20 36.02 19.59 38.69 20.73 C 38.65 23.52 38.70 26.29 38.77 29.08 L 36.99 25.38 C 37.20 26.31 37.63 28.18 37.84 29.11 C 34.53 30.16 32.79 33.41 30.22 35.51 C 30.38 30.11 31.46 23.88 27.76 19.32 C 22.37 12.74 10.97 14.60 6.68 21.54 C 7.02 22.23 7.36 22.91 7.71 23.59 C 11.50 16.85 23.12 16.02 27.16 22.93 C 29.67 27.08 28.70 32.15 28.46 36.73 C 32.45 35.56 34.56 31.61 38.37 30.18 C 36.86 32.02 35.78 34.22 34.02 35.85 C 32.17 37.49 29.62 37.73 27.31 38.26 C 27.52 33.79 28.30 28.61 25.13 24.92 C 21.31 20.34 13.92 20.83 9.61 24.44 C 7.11 26.43 6.22 29.63 4.94 32.41 C 5.26 29.92 5.56 27.40 6.42 25.02 C 5.86 24.50 5.29 23.99 4.70 23.49 L 7.06 25.13 C 4.83 20.25 7.74 15.47 10.84 11.89 Z" />
<path fill="#000000" d=" M 11.66 14.54 C 16.76 8.49 24.91 4.99 32.80 6.77 C 28.15 7.67 23.03 7.85 19.27 11.13 C 17.19 13.15 14.40 13.91 11.66 14.54 Z" />
<path fill="#ffffff" d=" M 17.66 33.74 C 19.55 33.64 21.74 33.27 23.05 34.98 C 25.86 37.73 25.82 41.89 26.93 45.41 C 26.38 46.91 25.80 48.40 25.22 49.88 C 23.12 49.39 21.04 48.80 18.97 48.17 C 19.39 47.64 20.21 46.59 20.63 46.07 C 20.55 44.75 20.47 43.44 20.39 42.13 L 19.77 42.82 C 18.48 40.21 16.72 37.79 16.53 34.76 C 19.13 37.67 20.72 41.26 22.09 44.87 C 22.13 40.64 19.71 37.19 17.66 33.74 Z" />
<path fill="#ffffff" d=" M 9.11 40.09 C 12.66 42.06 16.68 43.79 18.42 47.74 C 14.63 46.13 11.72 43.18 9.11 40.09 Z" />
</svg>
